<?xml version="1.0" encoding="utf-8"?>
<!-- Generator: Adobe Illustrator 19.1.1, SVG Export Plug-In . SVG Version: 6.00 Build 0)  -->
<svg version="1.1" id="Layer_1" xmlns="http://www.w3.org/2000/svg" xmlns:xlink="http://www.w3.org/1999/xlink" x="0px" y="0px"
	 viewBox="0 0 575 550" style="enable-background:new 0 0 575 550;" xml:space="preserve">
<style type="text/css">
	.st0{fill:#D7EBCE;}
	.st1{fill:#E36D25;}
	.st2{fill:#010101;}
	.st3{fill:#FFFFFF;}
	.st4{fill:#DB1F26;}
	.st5{fill:#503D4E;}
	.st6{fill:#82AE40;}
	.st7{fill:none;stroke:#000000;stroke-width:5;stroke-linecap:round;stroke-miterlimit:10;}
	.st8{opacity:0.63;fill:#503D4E;}
	.st9{fill:none;stroke:#000000;stroke-miterlimit:10;}
	.st10{fill:#124F64;}
</style>
<rect x="0" y="0" class="st0" width="575" height="550"/>
<ellipse class="st1" cx="423.4" cy="122.8" rx="31.7" ry="30.3"/>
<circle class="st2" cx="434.6" cy="109.9" r="9"/>
<circle class="st2" cx="393.6" cy="114.9" r="9"/>
<circle class="st3" cx="438.3" cy="106.2" r="3.4"/>
<circle class="st3" cx="397.3" cy="111.7" r="3.4"/>
<ellipse class="st4" cx="414" cy="132" rx="7.5" ry="8.2"/>
<g>
	<g>
		<path class="st5" d="M101.3,469.2v-1h5.5v1h-2.2v9.1h-1v-9.1H101.3z"/>
		<path class="st5" d="M111.6,470.7c1.1,0,2.1,0.4,2.8,1.2c0.7,0.8,1,1.7,1,2.7c0,1-0.4,1.9-1.1,2.7c-0.7,0.8-1.7,1.2-2.8,1.2
			c-1.1,0-2.1-0.4-2.8-1.2c-0.7-0.8-1.1-1.7-1.1-2.7c0-1,0.3-1.9,1-2.7C109.5,471.1,110.5,470.7,111.6,470.7z M111.6,471.6
			c-0.8,0-1.5,0.3-2.1,0.9s-0.9,1.3-0.9,2.1c0,0.5,0.1,1,0.4,1.5s0.6,0.8,1.1,1.1c0.4,0.3,0.9,0.4,1.5,0.4c0.5,0,1-0.1,1.5-0.4
			c0.4-0.3,0.8-0.6,1.1-1.1s0.4-1,0.4-1.5c0-0.8-0.3-1.5-0.9-2.1C113.1,471.9,112.4,471.6,111.6,471.6z"/>
		<path class="st5" d="M121.1,470.9h1v1.4c0.4-0.5,0.8-0.9,1.3-1.2s1-0.4,1.6-0.4c1.1,0,2,0.4,2.7,1.1c0.8,0.8,1.1,1.7,1.1,2.7
			c0,1.1-0.4,2-1.1,2.8c-0.7,0.8-1.6,1.1-2.7,1.1c-0.6,0-1.1-0.1-1.6-0.4s-0.9-0.6-1.3-1.1v4h-1V470.9z M125,471.6
			c-0.8,0-1.5,0.3-2.1,0.9c-0.6,0.6-0.8,1.3-0.8,2.2c0,0.6,0.1,1.1,0.4,1.5c0.3,0.5,0.6,0.8,1.1,1.1c0.5,0.3,1,0.4,1.5,0.4
			c0.5,0,1-0.1,1.4-0.4s0.8-0.6,1.1-1.1c0.3-0.5,0.4-1,0.4-1.5c0-0.5-0.1-1-0.4-1.5c-0.3-0.5-0.6-0.8-1.1-1.1S125.5,471.6,125,471.6
			z"/>
		<path class="st5" d="M130.5,468h1v10.3h-1V468z"/>
		<path class="st5" d="M140.9,470.9v7.4H140V477c-0.4,0.5-0.9,0.9-1.4,1.1s-1,0.4-1.6,0.4c-1.1,0-2-0.4-2.7-1.1
			c-0.7-0.8-1.1-1.7-1.1-2.8c0-1.1,0.4-2,1.1-2.7s1.7-1.1,2.7-1.1c0.6,0,1.2,0.1,1.7,0.4s0.9,0.6,1.3,1.2v-1.4H140.9z M137.1,471.6
			c-0.5,0-1,0.1-1.5,0.4s-0.8,0.6-1.1,1.1c-0.3,0.5-0.4,1-0.4,1.5c0,0.5,0.1,1,0.4,1.5c0.3,0.5,0.6,0.8,1.1,1.1
			c0.5,0.3,0.9,0.4,1.5,0.4c0.5,0,1-0.1,1.5-0.4c0.5-0.3,0.8-0.6,1.1-1.1c0.3-0.5,0.4-1,0.4-1.5c0-0.9-0.3-1.6-0.9-2.2
			S137.9,471.6,137.1,471.6z"/>
		<path class="st5" d="M142.3,470.9h1l2.6,5.7l2.5-5.7h1l-4.4,10.2h-1l1.4-3.3L142.3,470.9z"/>
		<path class="st5" d="M154.4,470.9h1v1.3c0.3-0.5,0.7-0.8,1-1c0.5-0.3,1-0.4,1.5-0.4c0.4,0,0.7,0.1,1,0.2c0.3,0.1,0.6,0.3,0.8,0.6
			c0.2,0.2,0.4,0.6,0.5,1c0.3-0.6,0.7-1,1.2-1.3c0.5-0.3,1-0.5,1.5-0.5c0.5,0,1,0.1,1.4,0.4c0.4,0.3,0.7,0.6,0.9,1.1
			s0.3,1.2,0.3,2.1v4.1h-1v-4.1c0-0.8-0.1-1.3-0.2-1.6c-0.1-0.3-0.3-0.5-0.6-0.7s-0.6-0.3-1-0.3c-0.5,0-0.9,0.1-1.3,0.4
			c-0.4,0.3-0.7,0.6-0.8,1.1s-0.3,1.2-0.3,2.3v2.9h-1v-3.8c0-0.9-0.1-1.5-0.2-1.8c-0.1-0.3-0.3-0.6-0.6-0.8c-0.3-0.2-0.6-0.3-1-0.3
			c-0.4,0-0.9,0.1-1.2,0.4c-0.4,0.3-0.7,0.6-0.9,1.1s-0.3,1.1-0.3,2.1v3.2h-1V470.9z"/>
		<path class="st5" d="M171.1,470.7c1.1,0,2.1,0.4,2.8,1.2c0.7,0.8,1,1.7,1,2.7c0,1-0.4,1.9-1.1,2.7c-0.7,0.8-1.7,1.2-2.8,1.2
			c-1.1,0-2.1-0.4-2.8-1.2c-0.7-0.8-1.1-1.7-1.1-2.7c0-1,0.3-1.9,1-2.7C169,471.1,169.9,470.7,171.1,470.7z M171.1,471.6
			c-0.8,0-1.5,0.3-2.1,0.9s-0.9,1.3-0.9,2.1c0,0.5,0.1,1,0.4,1.5s0.6,0.8,1.1,1.1c0.4,0.3,0.9,0.4,1.5,0.4c0.5,0,1-0.1,1.5-0.4
			c0.4-0.3,0.8-0.6,1.1-1.1s0.4-1,0.4-1.5c0-0.8-0.3-1.5-0.9-2.1C172.6,471.9,171.9,471.6,171.1,471.6z"/>
		<path class="st5" d="M176,470.9h1l2.5,5.4l2.5-5.4h1l-3.4,7.4h-0.2L176,470.9z"/>
		<path class="st5" d="M190.8,475.8l0.8,0.4c-0.3,0.5-0.6,0.9-0.9,1.3s-0.7,0.6-1.2,0.7c-0.4,0.2-0.9,0.3-1.5,0.3
			c-1.2,0-2.2-0.4-2.8-1.2c-0.7-0.8-1-1.7-1-2.7c0-0.9,0.3-1.8,0.9-2.5c0.7-0.9,1.7-1.4,2.9-1.4c1.3,0,2.3,0.5,3,1.4
			c0.5,0.7,0.8,1.5,0.8,2.5h-6.7c0,0.9,0.3,1.6,0.8,2.1c0.5,0.6,1.2,0.8,2,0.8c0.4,0,0.7-0.1,1.1-0.2c0.4-0.1,0.7-0.3,0.9-0.5
			S190.5,476.3,190.8,475.8z M190.8,473.8c-0.1-0.5-0.3-0.9-0.6-1.2c-0.2-0.3-0.6-0.6-1-0.7s-0.8-0.3-1.3-0.3
			c-0.7,0-1.4,0.2-1.9,0.7c-0.4,0.3-0.7,0.9-0.9,1.5H190.8z"/>
		<path class="st5" d="M198.3,468.1h1v2.8h1.5v0.8h-1.5v6.6h-1v-6.6H197v-0.8h1.3V468.1z"/>
		<path class="st5" d="M202.2,468h1v4.2c0.4-0.5,0.8-0.9,1.3-1.1c0.5-0.3,1-0.4,1.5-0.4c0.6,0,1,0.1,1.5,0.4s0.7,0.7,1,1.1
			c0.2,0.5,0.3,1.2,0.3,2.2v3.8h-1v-3.5c0-0.9,0-1.4-0.1-1.7c-0.1-0.5-0.3-0.9-0.6-1.1c-0.3-0.2-0.7-0.4-1.2-0.4
			c-0.6,0-1.1,0.2-1.6,0.6s-0.8,0.9-0.9,1.4c-0.1,0.4-0.1,1-0.1,2v2.7h-1V468z"/>
		<path class="st5" d="M217,475.8l0.8,0.4c-0.3,0.5-0.6,0.9-0.9,1.3s-0.7,0.6-1.2,0.7c-0.4,0.2-0.9,0.3-1.5,0.3
			c-1.2,0-2.2-0.4-2.8-1.2c-0.7-0.8-1-1.7-1-2.7c0-0.9,0.3-1.8,0.9-2.5c0.7-0.9,1.7-1.4,2.9-1.4c1.3,0,2.3,0.5,3,1.4
			c0.5,0.7,0.8,1.5,0.8,2.5h-6.7c0,0.9,0.3,1.6,0.8,2.1c0.5,0.6,1.2,0.8,2,0.8c0.4,0,0.7-0.1,1.1-0.2c0.4-0.1,0.7-0.3,0.9-0.5
			S216.7,476.3,217,475.8z M217,473.8c-0.1-0.5-0.3-0.9-0.6-1.2c-0.2-0.3-0.6-0.6-1-0.7s-0.8-0.3-1.3-0.3c-0.7,0-1.4,0.2-1.9,0.7
			c-0.4,0.3-0.7,0.9-0.9,1.5H217z"/>
		<path class="st5" d="M230.9,472.4l-0.8,0.5c-0.7-0.9-1.5-1.3-2.7-1.3c-0.9,0-1.7,0.3-2.3,0.9s-0.9,1.3-0.9,2.1
			c0,0.5,0.1,1.1,0.4,1.5c0.3,0.5,0.7,0.8,1.1,1.1c0.5,0.3,1,0.4,1.6,0.4c1.1,0,2-0.4,2.7-1.3l0.8,0.5c-0.4,0.5-0.8,1-1.4,1.2
			c-0.6,0.3-1.3,0.4-2,0.4c-1.2,0-2.2-0.4-2.9-1.1s-1.2-1.7-1.2-2.7c0-0.7,0.2-1.4,0.5-2c0.4-0.6,0.9-1.1,1.5-1.4s1.3-0.5,2.1-0.5
			c0.5,0,1,0.1,1.4,0.2s0.8,0.3,1.2,0.6S230.7,472,230.9,472.4z"/>
		<path class="st5" d="M232.8,468h1v4.2c0.4-0.5,0.8-0.9,1.3-1.1c0.5-0.3,1-0.4,1.5-0.4c0.6,0,1,0.1,1.5,0.4s0.7,0.7,1,1.1
			c0.2,0.5,0.3,1.2,0.3,2.2v3.8h-1v-3.5c0-0.9,0-1.4-0.1-1.7c-0.1-0.5-0.3-0.9-0.6-1.1c-0.3-0.2-0.7-0.4-1.2-0.4
			c-0.6,0-1.1,0.2-1.6,0.6s-0.8,0.9-0.9,1.4c-0.1,0.4-0.1,1-0.1,2v2.7h-1V468z"/>
		<path class="st5" d="M248.7,470.9v7.4h-0.9V477c-0.4,0.5-0.9,0.9-1.4,1.1s-1,0.4-1.6,0.4c-1.1,0-2-0.4-2.7-1.1
			c-0.7-0.8-1.1-1.7-1.1-2.8c0-1.1,0.4-2,1.1-2.7s1.7-1.1,2.7-1.1c0.6,0,1.2,0.1,1.7,0.4s0.9,0.6,1.3,1.2v-1.4H248.7z M244.9,471.6
			c-0.5,0-1,0.1-1.5,0.4s-0.8,0.6-1.1,1.1c-0.3,0.5-0.4,1-0.4,1.5c0,0.5,0.1,1,0.4,1.5c0.3,0.5,0.6,0.8,1.1,1.1
			c0.5,0.3,0.9,0.4,1.5,0.4c0.5,0,1-0.1,1.5-0.4c0.5-0.3,0.8-0.6,1.1-1.1c0.3-0.5,0.4-1,0.4-1.5c0-0.9-0.3-1.6-0.9-2.2
			S245.7,471.6,244.9,471.6z"/>
		<path class="st5" d="M250.5,470.9h1v1.1c0.3-0.4,0.6-0.7,0.9-1c0.3-0.2,0.7-0.3,1-0.3c0.3,0,0.5,0.1,0.8,0.3l-0.5,0.8
			c-0.2-0.1-0.4-0.1-0.5-0.1c-0.3,0-0.6,0.1-0.9,0.4c-0.3,0.3-0.5,0.7-0.7,1.2c-0.1,0.4-0.2,1.3-0.2,2.6v2.5h-1V470.9z"/>
		<path class="st5" d="M262.5,470.9v7.4h-0.9V477c-0.4,0.5-0.9,0.9-1.4,1.1s-1,0.4-1.6,0.4c-1.1,0-2-0.4-2.7-1.1
			c-0.7-0.8-1.1-1.7-1.1-2.8c0-1.1,0.4-2,1.1-2.7s1.7-1.1,2.7-1.1c0.6,0,1.2,0.1,1.7,0.4s0.9,0.6,1.3,1.2v-1.4H262.5z M258.7,471.6
			c-0.5,0-1,0.1-1.5,0.4s-0.8,0.6-1.1,1.1c-0.3,0.5-0.4,1-0.4,1.5c0,0.5,0.1,1,0.4,1.5c0.3,0.5,0.6,0.8,1.1,1.1
			c0.5,0.3,0.9,0.4,1.5,0.4c0.5,0,1-0.1,1.5-0.4c0.5-0.3,0.8-0.6,1.1-1.1c0.3-0.5,0.4-1,0.4-1.5c0-0.9-0.3-1.6-0.9-2.2
			S259.5,471.6,258.7,471.6z"/>
		<path class="st5" d="M271.9,472.4l-0.8,0.5c-0.7-0.9-1.5-1.3-2.7-1.3c-0.9,0-1.7,0.3-2.3,0.9s-0.9,1.3-0.9,2.1
			c0,0.5,0.1,1.1,0.4,1.5c0.3,0.5,0.7,0.8,1.1,1.1c0.5,0.3,1,0.4,1.6,0.4c1.1,0,2-0.4,2.7-1.3l0.8,0.5c-0.4,0.5-0.8,1-1.4,1.2
			c-0.6,0.3-1.3,0.4-2,0.4c-1.2,0-2.2-0.4-2.9-1.1s-1.2-1.7-1.2-2.7c0-0.7,0.2-1.4,0.5-2c0.4-0.6,0.9-1.1,1.5-1.4s1.3-0.5,2.1-0.5
			c0.5,0,1,0.1,1.4,0.2s0.8,0.3,1.2,0.6S271.7,472,271.9,472.4z"/>
		<path class="st5" d="M274.5,468.1h1v2.8h1.5v0.8h-1.5v6.6h-1v-6.6h-1.3v-0.8h1.3V468.1z"/>
		<path class="st5" d="M284.7,475.8l0.8,0.4c-0.3,0.5-0.6,0.9-0.9,1.3s-0.7,0.6-1.2,0.7c-0.4,0.2-0.9,0.3-1.5,0.3
			c-1.2,0-2.2-0.4-2.8-1.2c-0.7-0.8-1-1.7-1-2.7c0-0.9,0.3-1.8,0.9-2.5c0.7-0.9,1.7-1.4,2.9-1.4c1.3,0,2.3,0.5,3,1.4
			c0.5,0.7,0.8,1.5,0.8,2.5h-6.7c0,0.9,0.3,1.6,0.8,2.1c0.5,0.6,1.2,0.8,2,0.8c0.4,0,0.7-0.1,1.1-0.2c0.4-0.1,0.7-0.3,0.9-0.5
			S284.4,476.3,284.7,475.8z M284.7,473.8c-0.1-0.5-0.3-0.9-0.6-1.2c-0.2-0.3-0.6-0.6-1-0.7s-0.8-0.3-1.3-0.3
			c-0.7,0-1.4,0.2-1.9,0.7c-0.4,0.3-0.7,0.9-0.9,1.5H284.7z"/>
		<path class="st5" d="M287.2,470.9h1v1.1c0.3-0.4,0.6-0.7,0.9-1c0.3-0.2,0.7-0.3,1-0.3c0.3,0,0.5,0.1,0.8,0.3l-0.5,0.8
			c-0.2-0.1-0.4-0.1-0.5-0.1c-0.3,0-0.6,0.1-0.9,0.4c-0.3,0.3-0.5,0.7-0.7,1.2c-0.1,0.4-0.2,1.3-0.2,2.6v2.5h-1V470.9z"/>
		<path class="st5" d="M299.2,470.7c1.1,0,2.1,0.4,2.8,1.2c0.7,0.8,1,1.7,1,2.7c0,1-0.4,1.9-1.1,2.7c-0.7,0.8-1.7,1.2-2.8,1.2
			c-1.1,0-2.1-0.4-2.8-1.2c-0.7-0.8-1.1-1.7-1.1-2.7c0-1,0.3-1.9,1-2.7C297.1,471.1,298,470.7,299.2,470.7z M299.2,471.6
			c-0.8,0-1.5,0.3-2.1,0.9c-0.6,0.6-0.9,1.3-0.9,2.1c0,0.5,0.1,1,0.4,1.5s0.6,0.8,1.1,1.1c0.4,0.3,0.9,0.4,1.5,0.4
			c0.5,0,1-0.1,1.5-0.4c0.4-0.3,0.8-0.6,1.1-1.1s0.4-1,0.4-1.5c0-0.8-0.3-1.5-0.9-2.1C300.6,471.9,300,471.6,299.2,471.6z"/>
		<path class="st5" d="M304.1,470.9h1l2.5,5.4l2.5-5.4h1l-3.4,7.4h-0.2L304.1,470.9z"/>
		<path class="st5" d="M318.8,475.8l0.8,0.4c-0.3,0.5-0.6,0.9-0.9,1.3s-0.7,0.6-1.2,0.7c-0.4,0.2-0.9,0.3-1.5,0.3
			c-1.2,0-2.2-0.4-2.8-1.2c-0.7-0.8-1-1.7-1-2.7c0-0.9,0.3-1.8,0.9-2.5c0.7-0.9,1.7-1.4,2.9-1.4c1.3,0,2.3,0.5,3,1.4
			c0.5,0.7,0.8,1.5,0.8,2.5h-6.7c0,0.9,0.3,1.6,0.8,2.1c0.5,0.6,1.2,0.8,2,0.8c0.4,0,0.7-0.1,1.1-0.2c0.4-0.1,0.7-0.3,0.9-0.5
			S318.5,476.3,318.8,475.8z M318.8,473.8c-0.1-0.5-0.3-0.9-0.6-1.2s-0.6-0.6-1-0.7s-0.8-0.3-1.3-0.3c-0.7,0-1.4,0.2-1.9,0.7
			c-0.4,0.3-0.7,0.9-0.9,1.5H318.8z"/>
		<path class="st5" d="M321.3,470.9h1v1.1c0.3-0.4,0.6-0.7,0.9-1c0.3-0.2,0.7-0.3,1-0.3c0.3,0,0.5,0.1,0.8,0.3l-0.5,0.8
			c-0.2-0.1-0.4-0.1-0.5-0.1c-0.3,0-0.6,0.1-0.9,0.4c-0.3,0.3-0.5,0.7-0.7,1.2c-0.1,0.4-0.2,1.3-0.2,2.6v2.5h-1V470.9z"/>
		<path class="st5" d="M330.6,468.1h1v2.8h1.5v0.8h-1.5v6.6h-1v-6.6h-1.3v-0.8h1.3V468.1z"/>
		<path class="st5" d="M334.5,468h1v4.2c0.4-0.5,0.8-0.9,1.3-1.1c0.5-0.3,1-0.4,1.5-0.4c0.6,0,1,0.1,1.5,0.4s0.7,0.7,1,1.1
			c0.2,0.5,0.3,1.2,0.3,2.2v3.8h-1v-3.5c0-0.9,0-1.4-0.1-1.7c-0.1-0.5-0.3-0.9-0.6-1.1c-0.3-0.2-0.7-0.4-1.2-0.4
			c-0.6,0-1.1,0.2-1.6,0.6s-0.8,0.9-0.9,1.4c-0.1,0.4-0.1,1-0.1,2v2.7h-1V468z"/>
		<path class="st5" d="M349.3,475.8l0.8,0.4c-0.3,0.5-0.6,0.9-0.9,1.3s-0.7,0.6-1.2,0.7c-0.4,0.2-0.9,0.3-1.5,0.3
			c-1.2,0-2.2-0.4-2.8-1.2c-0.7-0.8-1-1.7-1-2.7c0-0.9,0.3-1.8,0.9-2.5c0.7-0.9,1.7-1.4,2.9-1.4c1.3,0,2.3,0.5,3,1.4
			c0.5,0.7,0.8,1.5,0.8,2.5h-6.7c0,0.9,0.3,1.6,0.8,2.1c0.5,0.6,1.2,0.8,2,0.8c0.4,0,0.7-0.1,1.1-0.2c0.4-0.1,0.7-0.3,0.9-0.5
			S349,476.3,349.3,475.8z M349.3,473.8c-0.1-0.5-0.3-0.9-0.6-1.2s-0.6-0.6-1-0.7s-0.8-0.3-1.3-0.3c-0.7,0-1.4,0.2-1.9,0.7
			c-0.4,0.3-0.7,0.9-0.9,1.5H349.3z"/>
		<path class="st5" d="M363.4,468v10.3h-0.9V477c-0.4,0.5-0.9,0.9-1.3,1.1s-1,0.4-1.6,0.4c-1.1,0-2-0.4-2.7-1.1
			c-0.7-0.8-1.1-1.7-1.1-2.8c0-1.1,0.4-2,1.1-2.7s1.7-1.1,2.7-1.1c0.6,0,1.2,0.1,1.7,0.4c0.5,0.3,0.9,0.6,1.3,1.2V468H363.4z
			 M359.6,471.6c-0.5,0-1,0.1-1.5,0.4c-0.5,0.3-0.8,0.6-1.1,1.1c-0.3,0.5-0.4,1-0.4,1.5c0,0.5,0.1,1,0.4,1.5
			c0.3,0.5,0.6,0.8,1.1,1.1s0.9,0.4,1.5,0.4c0.5,0,1-0.1,1.5-0.4c0.5-0.3,0.8-0.6,1.1-1.1c0.3-0.5,0.4-1,0.4-1.5
			c0-0.9-0.3-1.6-0.8-2.2C361.1,471.9,360.4,471.6,359.6,471.6z"/>
		<path class="st5" d="M373,470.9v7.4h-0.9V477c-0.4,0.5-0.9,0.9-1.3,1.1s-1,0.4-1.6,0.4c-1.1,0-2-0.4-2.7-1.1
			c-0.7-0.8-1.1-1.7-1.1-2.8c0-1.1,0.4-2,1.1-2.7s1.7-1.1,2.7-1.1c0.6,0,1.2,0.1,1.7,0.4c0.5,0.3,0.9,0.6,1.3,1.2v-1.4H373z
			 M369.2,471.6c-0.5,0-1,0.1-1.5,0.4c-0.5,0.3-0.8,0.6-1.1,1.1c-0.3,0.5-0.4,1-0.4,1.5c0,0.5,0.1,1,0.4,1.5
			c0.3,0.5,0.6,0.8,1.1,1.1s0.9,0.4,1.5,0.4c0.5,0,1-0.1,1.5-0.4c0.5-0.3,0.8-0.6,1.1-1.1c0.3-0.5,0.4-1,0.4-1.5
			c0-0.9-0.3-1.6-0.8-2.2C370.7,471.9,370,471.6,369.2,471.6z"/>
		<path class="st5" d="M374.8,470.9h1v1.1c0.3-0.4,0.6-0.7,0.9-1c0.3-0.2,0.7-0.3,1-0.3c0.3,0,0.5,0.1,0.8,0.3l-0.5,0.8
			c-0.2-0.1-0.4-0.1-0.5-0.1c-0.3,0-0.6,0.1-0.9,0.4c-0.3,0.3-0.5,0.7-0.7,1.2c-0.1,0.4-0.2,1.3-0.2,2.6v2.5h-1V470.9z"/>
		<path class="st5" d="M379.4,468h1v5.9l3.4-3h1.4l-4.1,3.5l4.3,3.9h-1.3l-3.7-3.3v3.3h-1V468z"/>
		<path class="st5" d="M397.7,470.9v7.4h-0.9V477c-0.4,0.5-0.9,0.9-1.3,1.1s-1,0.4-1.6,0.4c-1.1,0-2-0.4-2.7-1.1
			c-0.7-0.8-1.1-1.7-1.1-2.8c0-1.1,0.4-2,1.1-2.7s1.7-1.1,2.7-1.1c0.6,0,1.2,0.1,1.7,0.4c0.5,0.3,0.9,0.6,1.3,1.2v-1.4H397.7z
			 M393.9,471.6c-0.5,0-1,0.1-1.5,0.4c-0.5,0.3-0.8,0.6-1.1,1.1c-0.3,0.5-0.4,1-0.4,1.5c0,0.5,0.1,1,0.4,1.5
			c0.3,0.5,0.6,0.8,1.1,1.1s0.9,0.4,1.5,0.4c0.5,0,1-0.1,1.5-0.4c0.5-0.3,0.8-0.6,1.1-1.1c0.3-0.5,0.4-1,0.4-1.5
			c0-0.9-0.3-1.6-0.8-2.2C395.4,471.9,394.7,471.6,393.9,471.6z"/>
		<path class="st5" d="M399.5,470.9h1v1.1c0.3-0.4,0.6-0.7,0.9-1c0.3-0.2,0.7-0.3,1-0.3c0.3,0,0.5,0.1,0.8,0.3l-0.5,0.8
			c-0.2-0.1-0.4-0.1-0.5-0.1c-0.3,0-0.6,0.1-0.9,0.4c-0.3,0.3-0.5,0.7-0.7,1.2c-0.1,0.4-0.2,1.3-0.2,2.6v2.5h-1V470.9z"/>
		<path class="st5" d="M410.3,475.8l0.8,0.4c-0.3,0.5-0.6,0.9-0.9,1.3s-0.7,0.6-1.2,0.7c-0.4,0.2-0.9,0.3-1.5,0.3
			c-1.2,0-2.2-0.4-2.8-1.2c-0.7-0.8-1-1.7-1-2.7c0-0.9,0.3-1.8,0.9-2.5c0.7-0.9,1.7-1.4,2.9-1.4c1.3,0,2.3,0.5,3,1.4
			c0.5,0.7,0.8,1.5,0.8,2.5h-6.7c0,0.9,0.3,1.6,0.8,2.1c0.5,0.6,1.2,0.8,2,0.8c0.4,0,0.7-0.1,1.1-0.2c0.4-0.1,0.7-0.3,0.9-0.5
			S410,476.3,410.3,475.8z M410.3,473.8c-0.1-0.5-0.3-0.9-0.6-1.2s-0.6-0.6-1-0.7s-0.8-0.3-1.3-0.3c-0.7,0-1.4,0.2-1.9,0.7
			c-0.4,0.3-0.7,0.9-0.9,1.5H410.3z"/>
		<path class="st5" d="M420.6,470.9v7.4h-0.9V477c-0.4,0.5-0.9,0.9-1.3,1.1s-1,0.4-1.6,0.4c-1.1,0-2-0.4-2.7-1.1
			c-0.7-0.8-1.1-1.7-1.1-2.8c0-1.1,0.4-2,1.1-2.7s1.7-1.1,2.7-1.1c0.6,0,1.2,0.1,1.7,0.4c0.5,0.3,0.9,0.6,1.3,1.2v-1.4H420.6z
			 M416.7,471.6c-0.5,0-1,0.1-1.5,0.4c-0.5,0.3-0.8,0.6-1.1,1.1c-0.3,0.5-0.4,1-0.4,1.5c0,0.5,0.1,1,0.4,1.5
			c0.3,0.5,0.6,0.8,1.1,1.1s0.9,0.4,1.5,0.4c0.5,0,1-0.1,1.5-0.4c0.5-0.3,0.8-0.6,1.1-1.1c0.3-0.5,0.4-1,0.4-1.5
			c0-0.9-0.3-1.6-0.8-2.2C418.3,471.9,417.6,471.6,416.7,471.6z"/>
		<path class="st5" d="M426.5,471.7l-0.6,0.6c-0.5-0.5-1-0.7-1.5-0.7c-0.3,0-0.6,0.1-0.8,0.3c-0.2,0.2-0.3,0.4-0.3,0.7
			c0,0.2,0.1,0.5,0.3,0.7c0.2,0.2,0.6,0.5,1.2,0.8c0.7,0.4,1.2,0.7,1.5,1.1c0.3,0.3,0.4,0.7,0.4,1.2c0,0.6-0.2,1.1-0.6,1.6
			c-0.4,0.4-1,0.6-1.6,0.6c-0.4,0-0.8-0.1-1.2-0.3c-0.4-0.2-0.7-0.4-1-0.8l0.6-0.7c0.5,0.6,1,0.8,1.6,0.8c0.4,0,0.7-0.1,1-0.4
			s0.4-0.5,0.4-0.9c0-0.3-0.1-0.5-0.3-0.7c-0.2-0.2-0.6-0.5-1.2-0.8c-0.7-0.3-1.1-0.7-1.4-1s-0.4-0.7-0.4-1.2c0-0.6,0.2-1,0.6-1.4
			s0.9-0.6,1.5-0.6C425.1,470.7,425.8,471,426.5,471.7z"/>
		<path class="st5" d="M431,470.9h1l2.3,5.4l2.4-5.4h0.2l2.4,5.4l2.3-5.4h1l-3.2,7.4h-0.2l-2.4-5.3l-2.4,5.3h-0.2L431,470.9z"/>
		<path class="st5" d="M444,467.8c0.2,0,0.4,0.1,0.6,0.2s0.2,0.3,0.2,0.6c0,0.2-0.1,0.4-0.2,0.6s-0.3,0.2-0.6,0.2
			c-0.2,0-0.4-0.1-0.6-0.2s-0.2-0.3-0.2-0.6c0-0.2,0.1-0.4,0.2-0.6S443.8,467.8,444,467.8z M443.5,470.9h1v7.4h-1V470.9z"/>
		<path class="st5" d="M447.3,468.1h1v2.8h1.5v0.8h-1.5v6.6h-1v-6.6H446v-0.8h1.3V468.1z"/>
		<path class="st5" d="M451.2,468h1v4.2c0.4-0.5,0.8-0.9,1.3-1.1c0.5-0.3,1-0.4,1.5-0.4c0.6,0,1,0.1,1.5,0.4s0.7,0.7,1,1.1
			c0.2,0.5,0.3,1.2,0.3,2.2v3.8h-1v-3.5c0-0.9,0-1.4-0.1-1.7c-0.1-0.5-0.3-0.9-0.6-1.1c-0.3-0.2-0.7-0.4-1.2-0.4
			c-0.6,0-1.1,0.2-1.6,0.6s-0.8,0.9-0.9,1.4c-0.1,0.4-0.1,1-0.1,2v2.7h-1V468z"/>
		<path class="st5" d="M101.3,487.7h1l2.6,5.7l2.5-5.7h1l-4.4,10.2h-1l1.4-3.3L101.3,487.7z"/>
		<path class="st5" d="M113.2,487.5c1.1,0,2.1,0.4,2.8,1.2c0.7,0.8,1,1.7,1,2.7c0,1-0.4,1.9-1.1,2.7c-0.7,0.8-1.7,1.2-2.8,1.2
			c-1.1,0-2.1-0.4-2.8-1.2c-0.7-0.8-1.1-1.7-1.1-2.7c0-1,0.3-1.9,1-2.7C111.1,487.9,112,487.5,113.2,487.5z M113.2,488.4
			c-0.8,0-1.5,0.3-2.1,0.9s-0.9,1.3-0.9,2.1c0,0.5,0.1,1,0.4,1.5s0.6,0.8,1.1,1.1c0.4,0.3,0.9,0.4,1.5,0.4c0.5,0,1-0.1,1.5-0.4
			c0.4-0.3,0.8-0.6,1.1-1.1s0.4-1,0.4-1.5c0-0.8-0.3-1.5-0.9-2.1C114.6,488.7,113.9,488.4,113.2,488.4z"/>
		<path class="st5" d="M118.7,487.7h1v3.5c0,0.8,0,1.4,0.1,1.8c0.1,0.5,0.4,0.8,0.8,1.1s0.8,0.4,1.4,0.4s1-0.1,1.4-0.4
			c0.4-0.3,0.6-0.6,0.8-1c0.1-0.3,0.1-0.9,0.1-1.8v-3.5h1v3.7c0,1-0.1,1.8-0.4,2.3s-0.6,0.9-1.1,1.2c-0.5,0.3-1.1,0.4-1.8,0.4
			s-1.3-0.1-1.8-0.4c-0.5-0.3-0.8-0.7-1.1-1.2c-0.2-0.5-0.4-1.3-0.4-2.4V487.7z"/>
		<path class="st5" d="M127,487.7h1v1.1c0.3-0.4,0.6-0.7,0.9-1c0.3-0.2,0.7-0.3,1-0.3c0.3,0,0.5,0.1,0.8,0.3l-0.5,0.8
			c-0.2-0.1-0.4-0.1-0.5-0.1c-0.3,0-0.6,0.1-0.9,0.4c-0.3,0.3-0.5,0.7-0.7,1.2c-0.1,0.4-0.2,1.3-0.2,2.6v2.5h-1V487.7z"/>
		<path class="st5" d="M135.4,487.7h1v1.3c0.3-0.5,0.7-0.8,1-1c0.5-0.3,1-0.4,1.5-0.4c0.4,0,0.7,0.1,1,0.2c0.3,0.1,0.6,0.3,0.8,0.6
			c0.2,0.2,0.4,0.6,0.5,1c0.3-0.6,0.7-1,1.2-1.3c0.5-0.3,1-0.5,1.5-0.5c0.5,0,1,0.1,1.4,0.4c0.4,0.3,0.7,0.6,0.9,1.1
			s0.3,1.2,0.3,2.1v4.1h-1V491c0-0.8-0.1-1.3-0.2-1.6c-0.1-0.3-0.3-0.5-0.6-0.7s-0.6-0.3-1-0.3c-0.5,0-0.9,0.1-1.3,0.4
			c-0.4,0.3-0.7,0.6-0.8,1.1s-0.3,1.2-0.3,2.3v2.9h-1v-3.8c0-0.9-0.1-1.5-0.2-1.8c-0.1-0.3-0.3-0.6-0.6-0.8c-0.3-0.2-0.6-0.3-1-0.3
			c-0.4,0-0.9,0.1-1.2,0.4c-0.4,0.3-0.7,0.6-0.9,1.1s-0.3,1.1-0.3,2.1v3.2h-1V487.7z"/>
		<path class="st5" d="M152.1,487.5c1.1,0,2.1,0.4,2.8,1.2c0.7,0.8,1,1.7,1,2.7c0,1-0.4,1.9-1.1,2.7c-0.7,0.8-1.7,1.2-2.8,1.2
			c-1.1,0-2.1-0.4-2.8-1.2c-0.7-0.8-1.1-1.7-1.1-2.7c0-1,0.3-1.9,1-2.7C150,487.9,150.9,487.5,152.1,487.5z M152.1,488.4
			c-0.8,0-1.5,0.3-2.1,0.9s-0.9,1.3-0.9,2.1c0,0.5,0.1,1,0.4,1.5s0.6,0.8,1.1,1.1c0.4,0.3,0.9,0.4,1.5,0.4c0.5,0,1-0.1,1.5-0.4
			c0.4-0.3,0.8-0.6,1.1-1.1s0.4-1,0.4-1.5c0-0.8-0.3-1.5-0.9-2.1C153.5,488.7,152.8,488.4,152.1,488.4z"/>
		<path class="st5" d="M157.6,487.7h1v3.5c0,0.8,0,1.4,0.1,1.8c0.1,0.5,0.4,0.8,0.8,1.1s0.8,0.4,1.4,0.4s1-0.1,1.4-0.4
			c0.4-0.3,0.6-0.6,0.8-1c0.1-0.3,0.1-0.9,0.1-1.8v-3.5h1v3.7c0,1-0.1,1.8-0.4,2.3s-0.6,0.9-1.1,1.2c-0.5,0.3-1.1,0.4-1.8,0.4
			s-1.3-0.1-1.8-0.4c-0.5-0.3-0.8-0.7-1.1-1.2c-0.2-0.5-0.4-1.3-0.4-2.4V487.7z"/>
		<path class="st5" d="M170,488.5l-0.6,0.6c-0.5-0.5-1-0.7-1.5-0.7c-0.3,0-0.6,0.1-0.8,0.3c-0.2,0.2-0.3,0.4-0.3,0.7
			c0,0.2,0.1,0.5,0.3,0.7c0.2,0.2,0.6,0.5,1.2,0.8c0.7,0.4,1.2,0.7,1.5,1.1c0.3,0.3,0.4,0.7,0.4,1.2c0,0.6-0.2,1.1-0.6,1.6
			s-1,0.6-1.6,0.6c-0.4,0-0.8-0.1-1.2-0.3s-0.7-0.4-1-0.8l0.6-0.7c0.5,0.6,1,0.8,1.6,0.8c0.4,0,0.7-0.1,1-0.4s0.4-0.5,0.4-0.9
			c0-0.3-0.1-0.5-0.3-0.7c-0.2-0.2-0.6-0.5-1.2-0.8c-0.7-0.3-1.1-0.7-1.4-1c-0.2-0.3-0.4-0.7-0.4-1.2c0-0.6,0.2-1,0.6-1.4
			s0.9-0.6,1.5-0.6C168.6,487.5,169.3,487.8,170,488.5z"/>
		<path class="st5" d="M177.9,492.6l0.8,0.4c-0.3,0.5-0.6,0.9-0.9,1.3s-0.7,0.6-1.2,0.7c-0.4,0.2-0.9,0.3-1.5,0.3
			c-1.2,0-2.2-0.4-2.8-1.2c-0.7-0.8-1-1.7-1-2.7c0-0.9,0.3-1.8,0.9-2.5c0.7-0.9,1.7-1.4,2.9-1.4c1.3,0,2.3,0.5,3,1.4
			c0.5,0.7,0.8,1.5,0.8,2.5h-6.7c0,0.9,0.3,1.6,0.8,2.1c0.5,0.6,1.2,0.8,2,0.8c0.4,0,0.7-0.1,1.1-0.2c0.4-0.1,0.7-0.3,0.9-0.5
			S177.6,493.1,177.9,492.6z M177.9,490.6c-0.1-0.5-0.3-0.9-0.6-1.2c-0.2-0.3-0.6-0.6-1-0.7s-0.8-0.3-1.3-0.3
			c-0.7,0-1.4,0.2-1.9,0.7c-0.4,0.3-0.7,0.9-0.9,1.5H177.9z"/>
		<path class="st5" d="M185.5,484.9h1v2.8h1.5v0.8h-1.5v6.6h-1v-6.6h-1.3v-0.8h1.3V484.9z"/>
		<path class="st5" d="M192.9,487.5c1.1,0,2.1,0.4,2.8,1.2c0.7,0.8,1,1.7,1,2.7c0,1-0.4,1.9-1.1,2.7c-0.7,0.8-1.7,1.2-2.8,1.2
			c-1.1,0-2.1-0.4-2.8-1.2c-0.7-0.8-1.1-1.7-1.1-2.7c0-1,0.3-1.9,1-2.7C190.8,487.9,191.7,487.5,192.9,487.5z M192.9,488.4
			c-0.8,0-1.5,0.3-2.1,0.9s-0.9,1.3-0.9,2.1c0,0.5,0.1,1,0.4,1.5s0.6,0.8,1.1,1.1c0.4,0.3,0.9,0.4,1.5,0.4c0.5,0,1-0.1,1.5-0.4
			c0.4-0.3,0.8-0.6,1.1-1.1s0.4-1,0.4-1.5c0-0.8-0.3-1.5-0.9-2.1C194.4,488.7,193.7,488.4,192.9,488.4z"/>
		<path class="st5" d="M209.6,489.2l-0.8,0.5c-0.7-0.9-1.5-1.3-2.7-1.3c-0.9,0-1.7,0.3-2.3,0.9s-0.9,1.3-0.9,2.1
			c0,0.5,0.1,1.1,0.4,1.5c0.3,0.5,0.7,0.8,1.1,1.1c0.5,0.3,1,0.4,1.6,0.4c1.1,0,2-0.4,2.7-1.3l0.8,0.5c-0.4,0.5-0.8,1-1.4,1.2
			c-0.6,0.3-1.3,0.4-2,0.4c-1.2,0-2.2-0.4-2.9-1.1s-1.2-1.7-1.2-2.7c0-0.7,0.2-1.4,0.5-2c0.4-0.6,0.9-1.1,1.5-1.4s1.3-0.5,2.1-0.5
			c0.5,0,1,0.1,1.4,0.2s0.8,0.3,1.2,0.6S209.4,488.8,209.6,489.2z"/>
		<path class="st5" d="M215,487.5c1.1,0,2.1,0.4,2.8,1.2c0.7,0.8,1,1.7,1,2.7c0,1-0.4,1.9-1.1,2.7c-0.7,0.8-1.7,1.2-2.8,1.2
			c-1.1,0-2.1-0.4-2.8-1.2c-0.7-0.8-1.1-1.7-1.1-2.7c0-1,0.3-1.9,1-2.7C212.9,487.9,213.8,487.5,215,487.5z M215,488.4
			c-0.8,0-1.5,0.3-2.1,0.9s-0.9,1.3-0.9,2.1c0,0.5,0.1,1,0.4,1.5s0.6,0.8,1.1,1.1c0.4,0.3,0.9,0.4,1.5,0.4c0.5,0,1-0.1,1.5-0.4
			c0.4-0.3,0.8-0.6,1.1-1.1s0.4-1,0.4-1.5c0-0.8-0.3-1.5-0.9-2.1C216.5,488.7,215.8,488.4,215,488.4z"/>
		<path class="st5" d="M220.5,484.8h1v10.3h-1V484.8z"/>
		<path class="st5" d="M223.3,484.8h1v10.3h-1V484.8z"/>
		<path class="st5" d="M232.5,492.6l0.8,0.4c-0.3,0.5-0.6,0.9-0.9,1.3s-0.7,0.6-1.2,0.7c-0.4,0.2-0.9,0.3-1.5,0.3
			c-1.2,0-2.2-0.4-2.8-1.2c-0.7-0.8-1-1.7-1-2.7c0-0.9,0.3-1.8,0.9-2.5c0.7-0.9,1.7-1.4,2.9-1.4c1.3,0,2.3,0.5,3,1.4
			c0.5,0.7,0.8,1.5,0.8,2.5h-6.7c0,0.9,0.3,1.6,0.8,2.1c0.5,0.6,1.2,0.8,2,0.8c0.4,0,0.7-0.1,1.1-0.2c0.4-0.1,0.7-0.3,0.9-0.5
			S232.2,493.1,232.5,492.6z M232.5,490.6c-0.1-0.5-0.3-0.9-0.6-1.2c-0.2-0.3-0.6-0.6-1-0.7s-0.8-0.3-1.3-0.3
			c-0.7,0-1.4,0.2-1.9,0.7c-0.4,0.3-0.7,0.9-0.9,1.5H232.5z"/>
		<path class="st5" d="M242.6,489.2l-0.8,0.5c-0.7-0.9-1.5-1.3-2.7-1.3c-0.9,0-1.7,0.3-2.3,0.9s-0.9,1.3-0.9,2.1
			c0,0.5,0.1,1.1,0.4,1.5c0.3,0.5,0.7,0.8,1.1,1.1c0.5,0.3,1,0.4,1.6,0.4c1.1,0,2-0.4,2.7-1.3l0.8,0.5c-0.4,0.5-0.8,1-1.4,1.2
			c-0.6,0.3-1.3,0.4-2,0.4c-1.2,0-2.2-0.4-2.9-1.1s-1.2-1.7-1.2-2.7c0-0.7,0.2-1.4,0.5-2c0.4-0.6,0.9-1.1,1.5-1.4s1.3-0.5,2.1-0.5
			c0.5,0,1,0.1,1.4,0.2s0.8,0.3,1.2,0.6S242.3,488.8,242.6,489.2z"/>
		<path class="st5" d="M245.2,484.9h1v2.8h1.5v0.8h-1.5v6.6h-1v-6.6h-1.3v-0.8h1.3V484.9z"/>
		<path class="st5" d="M253.8,484.9h1v2.8h1.5v0.8h-1.5v6.6h-1v-6.6h-1.3v-0.8h1.3V484.9z"/>
		<path class="st5" d="M257.8,484.8h1v4.2c0.4-0.5,0.8-0.9,1.3-1.1c0.5-0.3,1-0.4,1.5-0.4c0.6,0,1,0.1,1.5,0.4s0.7,0.7,1,1.1
			c0.2,0.5,0.3,1.2,0.3,2.2v3.8h-1v-3.5c0-0.9,0-1.4-0.1-1.7c-0.1-0.5-0.3-0.9-0.6-1.1c-0.3-0.2-0.7-0.4-1.2-0.4
			c-0.6,0-1.1,0.2-1.6,0.6s-0.8,0.9-0.9,1.4c-0.1,0.4-0.1,1-0.1,2v2.7h-1V484.8z"/>
		<path class="st5" d="M272.6,492.6l0.8,0.4c-0.3,0.5-0.6,0.9-0.9,1.3s-0.7,0.6-1.2,0.7c-0.4,0.2-0.9,0.3-1.5,0.3
			c-1.2,0-2.2-0.4-2.8-1.2c-0.7-0.8-1-1.7-1-2.7c0-0.9,0.3-1.8,0.9-2.5c0.7-0.9,1.7-1.4,2.9-1.4c1.3,0,2.3,0.5,3,1.4
			c0.5,0.7,0.8,1.5,0.8,2.5h-6.7c0,0.9,0.3,1.6,0.8,2.1c0.5,0.6,1.2,0.8,2,0.8c0.4,0,0.7-0.1,1.1-0.2c0.4-0.1,0.7-0.3,0.9-0.5
			S272.3,493.1,272.6,492.6z M272.6,490.6c-0.1-0.5-0.3-0.9-0.6-1.2c-0.2-0.3-0.6-0.6-1-0.7s-0.8-0.3-1.3-0.3
			c-0.7,0-1.4,0.2-1.9,0.7c-0.4,0.3-0.7,0.9-0.9,1.5H272.6z"/>
		<path class="st5" d="M282.8,487.5c1.1,0,2.1,0.4,2.8,1.2c0.7,0.8,1,1.7,1,2.7c0,1-0.4,1.9-1.1,2.7c-0.7,0.8-1.7,1.2-2.8,1.2
			c-1.1,0-2.1-0.4-2.8-1.2c-0.7-0.8-1.1-1.7-1.1-2.7c0-1,0.3-1.9,1-2.7C280.7,487.9,281.6,487.5,282.8,487.5z M282.8,488.4
			c-0.8,0-1.5,0.3-2.1,0.9s-0.9,1.3-0.9,2.1c0,0.5,0.1,1,0.4,1.5s0.6,0.8,1.1,1.1c0.4,0.3,0.9,0.4,1.5,0.4c0.5,0,1-0.1,1.5-0.4
			c0.4-0.3,0.8-0.6,1.1-1.1s0.4-1,0.4-1.5c0-0.8-0.3-1.5-0.9-2.1C284.3,488.7,283.6,488.4,282.8,488.4z"/>
		<path class="st5" d="M288.8,484.6c0.2,0,0.4,0.1,0.6,0.2s0.2,0.3,0.2,0.6c0,0.2-0.1,0.4-0.2,0.6s-0.3,0.2-0.6,0.2
			c-0.2,0-0.4-0.1-0.6-0.2s-0.2-0.3-0.2-0.6c0-0.2,0.1-0.4,0.2-0.6S288.6,484.6,288.8,484.6z M288.3,487.7h1v7.4h-1V487.7z"/>
		<path class="st5" d="M291.1,484.8h1v10.3h-1V484.8z"/>
		<path class="st5" d="M301.7,488.5l-0.6,0.6c-0.5-0.5-1-0.7-1.5-0.7c-0.3,0-0.6,0.1-0.8,0.3c-0.2,0.2-0.3,0.4-0.3,0.7
			c0,0.2,0.1,0.5,0.3,0.7c0.2,0.2,0.6,0.5,1.2,0.8c0.7,0.4,1.2,0.7,1.5,1.1c0.3,0.3,0.4,0.7,0.4,1.2c0,0.6-0.2,1.1-0.6,1.6
			c-0.4,0.4-1,0.6-1.6,0.6c-0.4,0-0.8-0.1-1.2-0.3c-0.4-0.2-0.7-0.4-1-0.8l0.6-0.7c0.5,0.6,1,0.8,1.6,0.8c0.4,0,0.7-0.1,1-0.4
			s0.4-0.5,0.4-0.9c0-0.3-0.1-0.5-0.3-0.7c-0.2-0.2-0.6-0.5-1.2-0.8c-0.7-0.3-1.1-0.7-1.4-1s-0.4-0.7-0.4-1.2c0-0.6,0.2-1,0.6-1.4
			s0.9-0.6,1.5-0.6C300.3,487.5,301,487.8,301.7,488.5z"/>
		<path class="st5" d="M303.4,487.7h1v1.4c0.4-0.5,0.8-0.9,1.3-1.2c0.5-0.3,1-0.4,1.6-0.4c1.1,0,2,0.4,2.7,1.1
			c0.8,0.8,1.1,1.7,1.1,2.7c0,1.1-0.4,2-1.1,2.8c-0.7,0.8-1.6,1.1-2.7,1.1c-0.6,0-1.1-0.1-1.6-0.4s-0.9-0.6-1.3-1.1v4h-1V487.7z
			 M307.2,488.4c-0.8,0-1.5,0.3-2.1,0.9c-0.6,0.6-0.8,1.3-0.8,2.2c0,0.6,0.1,1.1,0.4,1.5c0.3,0.5,0.6,0.8,1.1,1.1
			c0.5,0.3,1,0.4,1.5,0.4c0.5,0,1-0.1,1.4-0.4c0.5-0.3,0.8-0.6,1.1-1.1c0.3-0.5,0.4-1,0.4-1.5c0-0.5-0.1-1-0.4-1.5
			c-0.3-0.5-0.6-0.8-1.1-1.1S307.7,488.4,307.2,488.4z"/>
		<path class="st5" d="M313.2,484.6c0.2,0,0.4,0.1,0.6,0.2s0.2,0.3,0.2,0.6c0,0.2-0.1,0.4-0.2,0.6s-0.3,0.2-0.6,0.2
			c-0.2,0-0.4-0.1-0.6-0.2s-0.2-0.3-0.2-0.6c0-0.2,0.1-0.4,0.2-0.6S313,484.6,313.2,484.6z M312.8,487.7h1v7.4h-1V487.7z"/>
		<path class="st5" d="M315.6,484.8h1v10.3h-1V484.8z"/>
		<path class="st5" d="M318.4,484.8h1v10.3h-1V484.8z"/>
		<path class="st5" d="M325.1,488.5l-0.6,0.6c-0.5-0.5-1-0.7-1.5-0.7c-0.3,0-0.6,0.1-0.8,0.3c-0.2,0.2-0.3,0.4-0.3,0.7
			c0,0.2,0.1,0.5,0.3,0.7c0.2,0.2,0.6,0.5,1.2,0.8c0.7,0.4,1.2,0.7,1.5,1.1c0.3,0.3,0.4,0.7,0.4,1.2c0,0.6-0.2,1.1-0.6,1.6
			c-0.4,0.4-1,0.6-1.6,0.6c-0.4,0-0.8-0.1-1.2-0.3c-0.4-0.2-0.7-0.4-1-0.8l0.6-0.7c0.5,0.6,1,0.8,1.6,0.8c0.4,0,0.7-0.1,1-0.4
			s0.4-0.5,0.4-0.9c0-0.3-0.1-0.5-0.3-0.7c-0.2-0.2-0.6-0.5-1.2-0.8c-0.7-0.3-1.1-0.7-1.4-1s-0.4-0.7-0.4-1.2c0-0.6,0.2-1,0.6-1.4
			s0.9-0.6,1.5-0.6C323.7,487.5,324.4,487.8,325.1,488.5z"/>
		<path class="st5" d="M327.8,493.6c0.2,0,0.4,0.1,0.6,0.2s0.2,0.4,0.2,0.6c0,0.2-0.1,0.4-0.2,0.6c-0.2,0.2-0.4,0.3-0.6,0.3
			s-0.4-0.1-0.6-0.3c-0.2-0.2-0.2-0.4-0.2-0.6c0-0.2,0.1-0.4,0.2-0.6S327.6,493.6,327.8,493.6z"/>
	</g>
</g>
<ellipse class="st5" cx="170.2" cy="136.4" rx="20.8" ry="11.2"/>
<ellipse class="st5" cx="158.4" cy="130.2" rx="36.1" ry="11.4"/>
<ellipse class="st5" cx="180" cy="118.3" rx="27.1" ry="6.9"/>
<ellipse class="st5" cx="128.4" cy="251.2" rx="36.1" ry="11.4"/>
<ellipse class="st5" cx="150" cy="239.3" rx="27.1" ry="6.9"/>
<path class="st6" d="M298.6,133h-14.8c-2.8,0-5.2-2.3-5.2-5.2V125c0-2.8,2.3-5.2,5.2-5.2h14.8c2.8,0,5.2,2.3,5.2,5.2v2.8
	C303.7,130.6,301.4,133,298.6,133z"/>
<path class="st6" d="M286.1,136.3c0,1.6-1.8,2.6-3.2,1.8l-8.3-5l-8.3-5c-1.4-0.8-1.4-2.9,0.1-3.7l8.5-4.7l8.5-4.7
	c1.4-0.8,3.2,0.2,3.1,1.9l-0.1,9.7L286.1,136.3z"/>
<path class="st6" d="M270.9,389.6l5-5.2c1.5-1.6,4-1.6,5.6-0.1l0,0c1.6,1.5,1.6,4,0.1,5.6l-5,5.2c-1.5,1.6-4,1.6-5.6,0.1v0
	C269.5,393.6,269.4,391.1,270.9,389.6z"/>
<path class="st6" d="M274.1,383.4c-0.7-0.7-0.4-1.9,0.6-2.1l5.6-1.5l5.6-1.5c0.9-0.3,1.8,0.6,1.6,1.6l-1.5,5.7l-1.5,5.7
	c-0.3,0.9-1.4,1.3-2.1,0.6l-4.1-4.1L274.1,383.4z"/>
<g>
	<path class="st2" d="M415.3,66.1l-4.3-8.6h1.6l3.4,7.2l3.4-7.2h1.6l-4.3,8.6v4.7h-1.5V66.1z"/>
	<path class="st2" d="M420.1,66c0-2.7,2-5.1,5.1-5.1c3.1,0,5.1,2.4,5.1,5.1s-2,5.1-5.1,5.1C422.2,71.1,420.1,68.7,420.1,66L420.1,66
		z M421.5,66c0,2.2,1.7,3.9,3.8,3.9c2.2,0,3.8-1.7,3.8-3.9c0-2.2-1.7-3.9-3.8-3.9C423.1,62.1,421.5,63.8,421.5,66L421.5,66z"/>
	<path class="st2" d="M441.3,70.8h-1.3v-1.7c-0.5,1.3-1.9,2-3.6,2c-3-0.1-4.1-2.1-4.1-4.5v-5.5h1.3v5.2c0,2.1,0.9,3.5,3.1,3.5
		c2,0,3.2-1.2,3.2-3.2v-5.5h1.3V70.8z"/>
</g>
<g>
	<path class="st2" d="M157.4,64.2c0-4.1,3.2-6.9,7-6.9c3.9,0,7,3,7,6.9s-3,6.9-7,6.9C160.4,71,157.4,68,157.4,64.2L157.4,64.2z
		 M158.8,64.2c0,3.1,2.4,5.6,5.5,5.6c3.2,0,5.5-2.5,5.5-5.6s-2.3-5.6-5.5-5.6C161.2,58.6,158.8,61.1,158.8,64.2L158.8,64.2z"/>
	<path class="st2" d="M173.3,57.5h1.3v1.9h-1.3V57.5z M173.3,61.1h1.3v9.7h-1.3V61.1z"/>
	<path class="st2" d="M177.2,57.5h1.3v13.3h-1.3V57.5z"/>
	<path class="st2" d="M187.2,67.1c0.2,2.2,1.8,2.7,2.7,2.7c1.4,0,2.7-1.1,2.7-2.5c0-1.9-1.6-2.3-3.2-2.8c-1.1-0.3-3.4-1-3.4-3.5
		c0-2.4,1.9-3.7,4-3.7c1.7,0,3.6,0.9,3.8,3.4h-1.5c-0.2-0.9-0.6-2.2-2.4-2.2c-1.3,0-2.4,0.9-2.4,2.3c0,1.6,1.3,2,3.3,2.7
		c1.3,0.5,3.2,1.2,3.2,3.6c0,2.2-1.6,3.9-4.1,3.9c-2.2,0-4.1-1.4-4.2-3.9H187.2z"/>
	<path class="st2" d="M195.9,61.1h1.3v2c0.8-1.4,2.2-2.3,4.1-2.3c3.3,0,5,2.6,5,5.1c0,2.7-2,5.1-5,5.1c-2.1,0-3.5-1.2-4-2.3v2v3.7
		h-1.3V61.1z M204.9,66c0-1.8-1.3-3.9-3.9-3.9c-1.1,0-2,0.4-2.7,1.1c-0.7,0.7-1.1,1.7-1.1,2.8c0,1.1,0.4,2.1,1.1,2.8
		c0.7,0.7,1.7,1.1,2.7,1.1C203.2,69.8,204.9,68.2,204.9,66L204.9,66z"/>
	<path class="st2" d="M208.2,57.5h1.3v1.9h-1.3V57.5z M208.2,61.1h1.3v9.7h-1.3V61.1z"/>
	<path class="st2" d="M212.2,57.5h1.3v13.3h-1.3V57.5z"/>
	<path class="st2" d="M216.1,57.5h1.3v13.3h-1.3V57.5z"/>
</g>
<ellipse class="st1" cx="176.4" cy="238.8" rx="31.7" ry="30.3"/>
<ellipse class="st1" cx="153" cy="248.5" rx="17.3" ry="16.5"/>
<ellipse class="st4" cx="163.3" cy="247" rx="5.7" ry="8.2"/>
<ellipse class="st1" cx="167.4" cy="246.6" rx="6.9" ry="9.8"/>
<path class="st7" d="M138.9,232c0,0,6.1-4.6,7.9-4.6c1.8,0,8.7,3.9,8.7,3.9"/>
<path class="st7" d="M165.6,229.7c0,0,6.1-4.6,7.9-4.6s8.7,3.9,8.7,3.9"/>
<path class="st8" d="M156.5,262.6c0,6.2-9.3,11.2-20.8,11.2s-20.8-5-20.8-11.2c0-6.2,9.3-11.2,20.8-11.2c5.7,0,20.5-2.2,24.2-0.2
	C163.7,253.2,156.5,259.5,156.5,262.6z"/>
<g>
	<path d="M122,201.1c-0.6-0.9-1.4-2.1-1.8-3l0,0c0.2,1,0.4,2,0.6,3.2l0.7,4.1l-0.7,0.4l-3.1-2.7c-0.9-0.8-1.7-1.5-2.4-2.3l0,0
		c0.5,0.9,1.1,2.1,1.6,3.2l1.5,3.1l-0.9,0.5l-3.5-7.3l1.2-0.7l3.1,2.7c0.8,0.7,1.5,1.3,2.1,2l0,0c-0.2-0.8-0.4-1.7-0.6-2.8l-0.7-4.1
		l1.2-0.7l4.5,6.8L124,204L122,201.1z"/>
	<path d="M129.7,198.9c0.3,0.5,0.6,1,0.8,1.3l-0.8,0.5l-0.5-0.8l0,0c0,0.5-0.2,1.4-1.1,1.9c-0.8,0.5-2,0.6-3-1.2l-1.7-2.9l0.9-0.5
		l1.6,2.8c0.6,1,1.2,1.4,2,1c0.6-0.4,0.8-1,0.7-1.5c0-0.2-0.1-0.3-0.2-0.5l-1.8-3.1l0.9-0.5L129.7,198.9z"/>
	<path d="M129.8,195.8c-0.3-0.5-0.6-0.9-0.8-1.3l0.8-0.5l0.5,0.8l0,0c0-0.6,0.3-1.4,1.1-1.9c0.7-0.4,2-0.6,3,1.1l1.7,3l-0.9,0.5
		l-1.7-2.9c-0.5-0.8-1.2-1.3-2-0.8c-0.6,0.3-0.8,1-0.7,1.6c0,0.1,0.1,0.3,0.2,0.5l1.7,3l-0.9,0.5L129.8,195.8z"/>
	<path d="M141.2,193.9c-0.2,0.3-0.6,0.7-1.3,1.1c-1.5,0.9-3.1,0.4-4-1.1c-0.9-1.5-0.5-3.3,1.2-4.2c0.5-0.3,1.1-0.5,1.4-0.5l0.2,0.8
		c-0.3,0-0.7,0.1-1.2,0.4c-1.2,0.7-1.3,1.9-0.7,2.9c0.7,1.2,1.8,1.5,2.8,0.9c0.5-0.3,0.8-0.6,1-0.9L141.2,193.9z"/>
	<path d="M138.1,186l0.9-0.5l1.8,3.1l0,0c0-0.3,0.1-0.7,0.3-1c0.2-0.3,0.4-0.6,0.8-0.8c0.7-0.4,2-0.6,3,1.1l1.7,3l-0.9,0.5l-1.7-2.9
		c-0.5-0.8-1.2-1.3-2-0.8c-0.6,0.3-0.8,1-0.7,1.6c0,0.2,0.1,0.3,0.2,0.5l1.7,3l-0.9,0.5L138.1,186z"/>
</g>
<g>
	<path d="M200.2,194.1c0.5-1,1.1-2.2,1.6-3.1l0,0c-0.7,0.7-1.5,1.4-2.4,2.2l-3.1,2.8l-0.7-0.4l0.7-4c0.2-1.2,0.4-2.3,0.7-3.2l0,0
		c-0.5,0.9-1.2,2-1.9,3.1l-1.9,2.9l-0.9-0.5l4.4-6.8l1.2,0.6l-0.7,4.1c-0.2,1-0.4,1.9-0.6,2.8l0,0c0.6-0.6,1.2-1.3,2.1-2l3.1-2.7
		l1.2,0.6l-3.4,7.3l-0.9-0.5L200.2,194.1z"/>
	<path d="M206,199.5c-0.3,0.5-0.5,1-0.7,1.4l-0.8-0.4l0.4-0.9l0,0c-0.5,0.3-1.3,0.5-2.2,0c-0.8-0.4-1.5-1.4-0.5-3.2l1.6-3l0.9,0.5
		l-1.5,2.8c-0.5,1-0.6,1.8,0.2,2.2c0.6,0.3,1.3,0.1,1.7-0.2c0.1-0.1,0.3-0.3,0.3-0.4l1.7-3.1l0.9,0.5L206,199.5z"/>
	<path d="M208.8,198c0.3-0.5,0.5-1,0.7-1.4l0.8,0.4l-0.4,0.9l0,0c0.5-0.3,1.4-0.5,2.2,0c0.7,0.4,1.6,1.4,0.6,3.2l-1.7,3l-0.9-0.5
		l1.6-2.9c0.4-0.8,0.5-1.7-0.4-2.1c-0.6-0.3-1.3-0.2-1.8,0.3c-0.1,0.1-0.2,0.2-0.3,0.4l-1.7,3.1l-0.9-0.5L208.8,198z"/>
	<path d="M216.4,206.7c-0.3,0-0.9-0.1-1.6-0.5c-1.5-0.8-2-2.4-1.1-4c0.9-1.6,2.6-2.1,4.2-1.2c0.5,0.3,1,0.7,1.1,1l-0.6,0.6
		c-0.2-0.2-0.4-0.6-0.9-0.8c-1.2-0.6-2.3-0.1-2.9,0.9c-0.6,1.2-0.3,2.3,0.7,2.9c0.5,0.3,0.9,0.3,1.3,0.4L216.4,206.7z"/>
	<path d="M221.5,200l0.9,0.5l-1.7,3.2l0,0c0.3-0.2,0.6-0.3,1-0.3c0.4,0,0.7,0.1,1.1,0.3c0.7,0.4,1.5,1.4,0.6,3.2l-1.7,3l-0.9-0.5
		l1.6-2.9c0.4-0.8,0.5-1.7-0.3-2.2c-0.6-0.3-1.3-0.2-1.7,0.2c-0.1,0.1-0.2,0.2-0.3,0.4l-1.7,3.1l-0.9-0.5L221.5,200z"/>
</g>
<circle class="st1" cx="242.4" cy="415.6" r="12.9"/>
<ellipse class="st5" cx="311.5" cy="362.2" rx="6" ry="6.3"/>
<ellipse class="st5" cx="150" cy="362.2" rx="6" ry="6.3"/>
<ellipse class="st5" cx="334" cy="421.9" rx="6" ry="6.3"/>
<ellipse class="st5" cx="406.5" cy="402.7" rx="6" ry="6.3"/>
<rect x="68" y="334" class="st9" width="442.6" height="120.7"/>
<g>
	<g>
		<path class="st10" d="M41.7,142.9V121c-0.4,0.1-0.7,0.2-1.1,0.4s-0.7,0.2-1.1,0.2c-0.5,0-1-0.2-1.3-0.5s-0.5-0.8-0.5-1.3
			c0-0.4,0.1-0.7,0.3-1s0.5-0.5,0.9-0.7l4-1.3c0.2-0.1,0.4-0.1,0.6-0.1c0.5,0,1,0.2,1.3,0.5s0.5,0.8,0.5,1.3v24.4
			c0,0.5-0.2,0.9-0.5,1.3s-0.8,0.5-1.3,0.5c-0.5,0-0.9-0.2-1.3-0.5S41.7,143.4,41.7,142.9z"/>
		<path class="st10" d="M52.6,142.3c0,0.7-0.2,1.3-0.7,1.8s-1.1,0.7-1.8,0.7s-1.3-0.2-1.8-0.7s-0.7-1.1-0.7-1.8s0.2-1.3,0.7-1.8
			s1.1-0.7,1.8-0.7s1.3,0.2,1.8,0.7S52.6,141.6,52.6,142.3z"/>
	</g>
</g>
<g>
	<g>
		<path class="st10" d="M37.9,223.3c0-1.2,0.2-2.3,0.7-3.3s1.1-1.9,1.8-2.7s1.7-1.4,2.7-1.8s2.1-0.7,3.3-0.7s2.3,0.2,3.3,0.7
			s1.9,1.1,2.7,1.8s1.4,1.7,1.8,2.7s0.7,2.1,0.7,3.3c0,1.2-0.2,2.3-0.6,3.3s-1,1.9-1.9,2.7l-8.5,9.9H53c0.5,0,1,0.2,1.3,0.5
			s0.5,0.8,0.5,1.3s-0.2,0.9-0.5,1.3s-0.8,0.5-1.3,0.5H39.7c-0.3,0-0.5,0-0.7-0.1s-0.4-0.2-0.6-0.4s-0.3-0.4-0.4-0.6
			s-0.1-0.5-0.1-0.7c0-0.5,0.2-1,0.5-1.3l11.4-13c1-1,1.4-2.1,1.4-3.5c0-0.7-0.1-1.3-0.4-1.9s-0.6-1.1-1-1.5s-1-0.8-1.5-1
			s-1.2-0.4-1.9-0.4c-0.7,0-1.3,0.1-1.9,0.4s-1.1,0.6-1.5,1s-0.8,0.9-1,1.5s-0.4,1.2-0.4,1.9c0,0.5-0.2,0.9-0.5,1.3
			s-0.8,0.5-1.3,0.5c-0.5,0-0.9-0.2-1.3-0.5S37.9,223.8,37.9,223.3z"/>
		<path class="st10" d="M62.2,240.4c0,0.7-0.2,1.3-0.7,1.8s-1.1,0.7-1.8,0.7s-1.3-0.2-1.8-0.7s-0.7-1.1-0.7-1.8s0.2-1.3,0.7-1.8
			s1.1-0.7,1.8-0.7s1.3,0.2,1.8,0.7S62.2,239.7,62.2,240.4z"/>
	</g>
</g>
</svg>
