<?xml version="1.0" encoding="utf-8"?>
<!-- Generator: Adobe Illustrator 19.1.1, SVG Export Plug-In . SVG Version: 6.00 Build 0)  -->
<svg version="1.1" id="Layer_1" xmlns="http://www.w3.org/2000/svg" xmlns:xlink="http://www.w3.org/1999/xlink" x="0px" y="0px"
	 viewBox="0 0 575 550" style="enable-background:new 0 0 575 550;" xml:space="preserve">
<style type="text/css">
	.st0{fill:#D6EBCE;}
	.st1{fill:#E36E26;}
	.st2{fill:#020202;}
	.st3{fill:#FFFFFF;}
	.st4{fill:#DA2228;}
	.st5{fill:#165064;}
	.st6{fill:none;}
	.st7{fill:#124F64;}
	.st8{font-family:'Comfortaa-Bold';}
	.st9{font-size:36px;}
	.st10{fill:url(#SVGID_1_);}
	.st11{fill:url(#SVGID_2_);}
	.st12{opacity:0.58;fill:#513E4F;}
	.st13{opacity:0.86;fill:#20111D;}
	.st14{fill:#20111D;}
	.st15{fill:#E36D25;}
	.st16{fill:#E29726;}
	.st17{fill:#F8C319;}
	.st18{fill:#82AE40;}
	.st19{opacity:0.64;fill:#40B8AF;}
	.st20{opacity:0.29;fill:#40B8AF;}
	.st21{opacity:0.15;fill:#FFFFFF;}
</style>
<rect class="st0" width="575" height="550"/>
<ellipse class="st1" cx="453.6" cy="403.7" rx="31.7" ry="30.3"/>
<circle class="st2" cx="464.8" cy="390.8" r="9"/>
<circle class="st2" cx="423.8" cy="395.8" r="9"/>
<circle class="st3" cx="468.5" cy="387.1" r="3.4"/>
<circle class="st3" cx="427.5" cy="392.6" r="3.4"/>
<ellipse class="st4" cx="444.2" cy="412.9" rx="7.5" ry="8.2"/>
<g>
	<g>
		<path class="st5" d="M320.3,101.4c0-1.2,0.2-2.3,0.7-3.3s1.1-1.9,1.8-2.7s1.7-1.4,2.7-1.8c1-0.4,2.1-0.7,3.3-0.7s2.3,0.2,3.3,0.7
			s1.9,1.1,2.7,1.8s1.4,1.7,1.8,2.7c0.4,1,0.7,2.1,0.7,3.3s-0.2,2.3-0.6,3.3s-1,1.9-1.9,2.7l-8.5,9.9h9.1c0.5,0,1,0.2,1.3,0.5
			c0.3,0.3,0.5,0.8,0.5,1.3s-0.2,0.9-0.5,1.3c-0.3,0.4-0.8,0.5-1.3,0.5h-13.3c-0.3,0-0.5,0-0.7-0.1c-0.2-0.1-0.4-0.2-0.6-0.4
			s-0.3-0.4-0.4-0.6c-0.1-0.2-0.1-0.5-0.1-0.7c0-0.5,0.2-1,0.5-1.3l11.4-13c1-1,1.4-2.1,1.4-3.5c0-0.7-0.1-1.3-0.4-1.9
			c-0.3-0.6-0.6-1.1-1-1.5s-1-0.8-1.5-1s-1.2-0.4-1.9-0.4s-1.3,0.1-1.9,0.4s-1.1,0.6-1.5,1s-0.8,0.9-1,1.5c-0.2,0.6-0.4,1.2-0.4,1.9
			c0,0.5-0.2,0.9-0.5,1.3c-0.3,0.4-0.8,0.5-1.3,0.5s-0.9-0.2-1.3-0.5C320.5,102.3,320.3,101.9,320.3,101.4z"/>
		<path class="st5" d="M344.6,118.5c0,0.7-0.2,1.3-0.7,1.8s-1.1,0.7-1.8,0.7c-0.7,0-1.3-0.2-1.8-0.7s-0.7-1.1-0.7-1.8
			c0-0.7,0.2-1.3,0.7-1.8s1.1-0.7,1.8-0.7c0.7,0,1.3,0.2,1.8,0.7S344.6,117.8,344.6,118.5z"/>
	</g>
</g>
<g>
	<rect x="48.9" y="86.3" class="st6" width="39.9" height="62.8"/>
	<text transform="matrix(1 0 0 1 48.9327 114.4252)" class="st7 st8 st9">1.</text>
</g>
<linearGradient id="SVGID_1_" gradientUnits="userSpaceOnUse" x1="157.4231" y1="118.7983" x2="157.4231" y2="235.3706">
	<stop  offset="6.562920e-007" style="stop-color:#2296A1"/>
	<stop  offset="2.364235e-002" style="stop-color:#2295A2;stop-opacity:0.9764"/>
	<stop  offset="0.3154" style="stop-color:#248EB2;stop-opacity:0.6846"/>
	<stop  offset="0.5848" style="stop-color:#2588BC;stop-opacity:0.4152"/>
	<stop  offset="0.8216" style="stop-color:#2585C2;stop-opacity:0.1784"/>
	<stop  offset="1" style="stop-color:#2484C6;stop-opacity:0"/>
</linearGradient>
<rect x="88" y="118.8" class="st10" width="138.9" height="116.6"/>
<linearGradient id="SVGID_2_" gradientUnits="userSpaceOnUse" x1="442.144" y1="113.8159" x2="442.144" y2="230.3882">
	<stop  offset="6.562920e-007" style="stop-color:#2296A1"/>
	<stop  offset="2.364235e-002" style="stop-color:#2295A2;stop-opacity:0.9764"/>
	<stop  offset="0.3154" style="stop-color:#248EB2;stop-opacity:0.6846"/>
	<stop  offset="0.5848" style="stop-color:#2588BC;stop-opacity:0.4152"/>
	<stop  offset="0.8216" style="stop-color:#2585C2;stop-opacity:0.1784"/>
	<stop  offset="1" style="stop-color:#2484C6;stop-opacity:0"/>
</linearGradient>
<rect x="372.7" y="113.8" class="st11" width="138.9" height="116.6"/>
<ellipse class="st12" cx="409.7" cy="139.9" rx="20.8" ry="7.7"/>
<ellipse class="st12" cx="427.7" cy="126" rx="36.1" ry="7.9"/>
<ellipse transform="matrix(-8.826615e-002 -0.9961 0.9961 -8.826615e-002 329.5817 607.4865)" class="st12" cx="442.8" cy="152.9" rx="4.8" ry="27.1"/>
<ellipse transform="matrix(-8.826604e-002 -0.9961 0.9961 -8.826604e-002 324.8275 587.5817)" class="st12" cx="431.3" cy="145.1" rx="13.3" ry="27.1"/>
<ellipse transform="matrix(4.850185e-002 -0.9988 0.9988 4.850185e-002 222.2261 591.064)" class="st12" cx="421.3" cy="178.9" rx="6.7" ry="27.1"/>
<path class="st13" d="M173.5,178.1H163c-2.1,0-3.9-1.7-3.9-3.9v-38.7c0-2.1,1.7-3.9,3.9-3.9h10.6c2.1,0,3.9,1.7,3.9,3.9v38.7
	C177.4,176.4,175.6,178.1,173.5,178.1z"/>
<path class="st13" d="M391.9,157l-11.4-7.7c-1.8-1.2-2.2-3.6-1-5.3l21.7-32c1.2-1.8,3.6-2.2,5.3-1l11.4,7.7c1.8,1.2,2.2,3.6,1,5.3
	l-21.7,32C396.1,157.7,393.7,158.2,391.9,157z"/>
<path class="st13" d="M474.5,185.2l-8.1,11.1c-1.3,1.7-3.7,2.1-5.4,0.8l-31.2-22.9c-1.7-1.3-2.1-3.7-0.8-5.4l8.1-11.1
	c1.3-1.7,3.7-2.1,5.4-0.8l31.2,22.9C475.4,181.1,475.8,183.5,474.5,185.2z"/>
<path class="st13" d="M141.8,178.1h-10.6c-2.1,0-3.9-1.7-3.9-3.9v-38.7c0-2.1,1.7-3.9,3.9-3.9h10.6c2.1,0,3.9,1.7,3.9,3.9v38.7
	C145.7,176.4,143.9,178.1,141.8,178.1z"/>
<path class="st13" d="M135.6,159.3H125c-2.1,0-3.9-1.7-3.9-3.9v-38.7c0-2.1,1.7-3.9,3.9-3.9h10.6c2.1,0,3.9,1.7,3.9,3.9v38.7
	C139.4,157.6,137.7,159.3,135.6,159.3z"/>
<path class="st13" d="M158.1,161.6h-10.6c-2.1,0-3.9-1.7-3.9-3.9v-38.7c0-2.1,1.7-3.9,3.9-3.9h10.6c2.1,0,3.9,1.7,3.9,3.9v38.7
	C162,159.9,160.3,161.6,158.1,161.6z"/>
<polygon class="st14" points="183.1,138.4 130.3,144.6 121.4,113.2 156.7,109.7 "/>
<path class="st15" d="M134.4,93.2c17.8-6.8,18.6-35.9,18.1-35.6c0,0,5.3,35.2,10.1,41.4c7,9,30.8-4.5,30.8-4.5s-18.8,21.2-20,26.8
	c-1.1,5.1,0.6,27.1,0.6,27.1s-8.7-12-14.3-8.4c-5.6,3.6-20.3,26-20.3,26s2-20.1-1.9-25.5c-2.5-3.5-24.7-5.8-24.7-5.8
	s8-17.1,7.7-22.1c-0.4-7.2-12.2-28.5-12.2-28.5S123.4,97.4,134.4,93.2z"/>
<path class="st16" d="M151,102.4c11.6-1.6,16.3-18.9,15.9-18.8c0,0-1.8,21.9,0.2,26.3c2.9,6.4,19.1,1.7,19.1,1.7s-14.3,10-15.8,13.2
	c-1.4,2.9-3.5,16.3-3.5,16.3s-3.5-8.4-7.4-7.1c-3.9,1.4-15.9,12.7-15.9,12.7s4.1-11.8,2.5-15.5c-1-2.4-14-7-14-7s7.2-9.1,7.8-12.2
	c0.8-4.4-3.3-18.8-3.3-18.8S143.8,103.4,151,102.4z"/>
<path class="st17" d="M143.2,104.9c7.3-2.8,7.6-14.7,7.4-14.6c0,0,2.2,14.4,4.1,17c2.9,3.7,12.6-1.8,12.6-1.8s-7.7,8.7-8.2,11
	c-0.5,2.1,0.2,11.1,0.2,11.1s-3.6-4.9-5.9-3.4c-2.3,1.5-8.3,10.6-8.3,10.6s0.8-8.2-0.8-10.4c-1-1.4-10.1-2.4-10.1-2.4s3.3-7,3.2-9.1
	c-0.2-2.9-5-11.7-5-11.7S138.7,106.6,143.2,104.9z"/>
<g>
	<g>
		<path class="st7" d="M54.4,395.3c0-1,0.2-2,0.6-2.9s0.9-1.7,1.5-2.3s1.4-1.2,2.3-1.6s1.8-0.6,2.8-0.6s1.9,0.2,2.8,0.6
			s1.6,0.9,2.3,1.6s1.2,1.4,1.5,2.3s0.6,1.8,0.6,2.8c0,1.9-0.7,3.7-2.2,5.2c2.3,1.9,3.5,4.2,3.5,7c0,1.2-0.2,2.3-0.7,3.3
			s-1.1,2-1.8,2.8s-1.7,1.4-2.7,1.9s-2.1,0.7-3.3,0.7s-2.3-0.2-3.3-0.7s-1.9-1.1-2.7-1.9s-1.4-1.7-1.8-2.8s-0.7-2.2-0.7-3.4
			c0-0.5,0.2-1,0.5-1.3s0.8-0.5,1.3-0.5c0.5,0,1,0.2,1.3,0.5s0.5,0.8,0.5,1.3c0,0.7,0.1,1.3,0.4,1.9s0.6,1.1,1,1.6s0.9,0.8,1.5,1
			s1.2,0.4,1.9,0.4c0.7,0,1.3-0.1,1.9-0.4s1.1-0.6,1.5-1.1s0.8-1,1-1.6s0.4-1.2,0.4-1.9s-0.1-1.3-0.4-1.9s-0.6-1.1-1-1.6
			s-0.9-0.8-1.5-1.1s-1.2-0.4-1.9-0.4c-0.5,0-1-0.2-1.3-0.5s-0.5-0.8-0.5-1.3c0-0.5,0.2-1,0.5-1.3s0.8-0.5,1.3-0.5
			c0.5,0,0.9-0.1,1.3-0.3s0.8-0.4,1.1-0.8s0.6-0.7,0.8-1.1s0.3-0.9,0.3-1.4c0-0.5-0.1-1-0.3-1.4s-0.4-0.8-0.8-1.1s-0.7-0.6-1.1-0.8
			s-0.9-0.3-1.3-0.3c-0.5,0-0.9,0.1-1.4,0.3s-0.8,0.5-1.1,0.8s-0.6,0.7-0.8,1.1s-0.3,0.9-0.3,1.4c0,0.5-0.2,0.9-0.5,1.3
			s-0.8,0.5-1.3,0.5c-0.5,0-0.9-0.2-1.3-0.5S54.4,395.8,54.4,395.3z"/>
		<path class="st7" d="M77.5,413.7c0,0.7-0.2,1.3-0.7,1.8s-1.1,0.7-1.8,0.7s-1.3-0.2-1.8-0.7s-0.7-1.1-0.7-1.8s0.2-1.3,0.7-1.8
			s1.1-0.7,1.8-0.7s1.3,0.2,1.8,0.7S77.5,413,77.5,413.7z"/>
	</g>
</g>
<g>
	<g>
		<path class="st18" d="M149.2,373.4c-0.1-0.2-0.2-0.3-0.2-0.6c0-0.1,0-0.3,0.1-0.4c0-0.1,0.1-0.2,0.2-0.3c0.1-0.1,0.2-0.2,0.3-0.2
			s0.2-0.1,0.4-0.1c0.3,0,0.6,0.1,0.8,0.4c0.2,0.4,0.6,0.7,0.9,0.9s0.8,0.3,1.2,0.3c0.3,0,0.6-0.1,0.9-0.2c0.3-0.1,0.6-0.3,0.8-0.5
			s0.4-0.5,0.5-0.8s0.2-0.6,0.2-1c0-0.3-0.1-0.6-0.2-0.9c-0.1-0.3-0.3-0.5-0.5-0.7s-0.4-0.4-0.7-0.5s-0.6-0.2-0.9-0.2
			c-0.5,0-0.9-0.2-1.3-0.4s-0.8-0.5-1.1-0.8c-0.3-0.3-0.5-0.7-0.7-1.1c-0.2-0.4-0.3-0.9-0.3-1.3c0-0.6,0.1-1.1,0.3-1.6
			c0.2-0.5,0.5-0.9,1-1.2h0c0.7-0.6,1.5-0.9,2.4-0.9c0.3,0,0.6,0,0.9,0.1c0.3,0.1,0.6,0.2,0.8,0.3c0.3,0.2,0.5,0.3,0.8,0.6
			s0.4,0.5,0.6,0.8c0.1,0.2,0.1,0.3,0.1,0.5c0,0.1,0,0.3-0.1,0.4s-0.1,0.2-0.2,0.3s-0.2,0.2-0.3,0.2s-0.2,0.1-0.4,0.1
			c-0.1,0-0.2,0-0.3-0.1s-0.2-0.1-0.2-0.1s-0.1-0.1-0.2-0.2s-0.1-0.2-0.2-0.3c-0.1-0.2-0.3-0.4-0.6-0.5s-0.5-0.2-0.8-0.2
			c-0.2,0-0.4,0-0.7,0.1s-0.4,0.2-0.6,0.4s-0.3,0.3-0.4,0.6s-0.2,0.5-0.2,0.7c0,0.2,0,0.4,0.1,0.7s0.2,0.4,0.3,0.5
			c0.1,0.2,0.3,0.3,0.5,0.4s0.4,0.2,0.6,0.2c0.5,0,1.1,0.2,1.5,0.4s0.9,0.6,1.3,0.9c0.4,0.4,0.6,0.8,0.9,1.3s0.3,1,0.3,1.6
			c0,1.4-0.5,2.5-1.5,3.3h0c-0.8,0.7-1.7,1-2.8,1c-0.3,0-0.7,0-1-0.1s-0.7-0.2-1-0.4s-0.6-0.4-0.9-0.6S149.4,373.7,149.2,373.4z"/>
		<path class="st18" d="M165.9,372.5c0.3,0,0.5,0.1,0.7,0.3c0.2,0.2,0.3,0.4,0.3,0.7c0,0.3-0.1,0.5-0.3,0.7c-0.9,0.8-2,1.2-3.2,1.2
			c-1.4,0-2.5-0.5-3.5-1.4s-1.4-2.1-1.4-3.5s0.5-2.5,1.4-3.5s2.1-1.4,3.5-1.4c1.2,0,2.3,0.4,3.2,1.2c0.2,0.2,0.3,0.4,0.3,0.7
			c0,0.3-0.1,0.5-0.3,0.7s-0.4,0.3-0.7,0.3c-0.2,0-0.4-0.1-0.6-0.2c-0.3-0.3-0.6-0.4-0.9-0.6s-0.7-0.2-1.1-0.2
			c-0.4,0-0.8,0.1-1.2,0.2c-0.4,0.2-0.7,0.4-1,0.7s-0.5,0.6-0.7,1s-0.2,0.8-0.2,1.2s0.1,0.8,0.2,1.2s0.4,0.7,0.7,1
			c0.3,0.3,0.6,0.5,1,0.7s0.8,0.2,1.2,0.2c0.4,0,0.7-0.1,1.1-0.2s0.6-0.3,0.9-0.6C165.5,372.6,165.7,372.5,165.9,372.5z"/>
		<path class="st18" d="M170.7,363.7c0,0.3-0.1,0.6-0.3,0.8s-0.5,0.3-0.8,0.3s-0.6-0.1-0.8-0.3s-0.3-0.5-0.3-0.8s0.1-0.6,0.3-0.8
			s0.5-0.3,0.8-0.3s0.6,0.1,0.8,0.3S170.7,363.4,170.7,363.7z M168.7,374.4v-8c0-0.3,0.1-0.5,0.3-0.7c0.2-0.2,0.4-0.3,0.6-0.3
			s0.5,0.1,0.6,0.3c0.2,0.2,0.3,0.4,0.3,0.7v8c0,0.3-0.1,0.5-0.3,0.7s-0.4,0.3-0.6,0.3s-0.5-0.1-0.6-0.3S168.7,374.6,168.7,374.4z"
			/>
		<path class="st18" d="M180,372.5c0.3,0,0.5,0.1,0.7,0.3c0.2,0.2,0.3,0.4,0.3,0.7c0,0.3-0.1,0.5-0.3,0.7c-0.9,0.8-2,1.2-3.2,1.2
			c-1.4,0-2.5-0.5-3.5-1.4s-1.4-2.1-1.4-3.5s0.5-2.5,1.4-3.5s2.1-1.4,3.5-1.4c1.3,0,2.5,0.5,3.5,1.4c0.5,0.5,0.8,1,1.1,1.6
			c0.2,0.6,0.4,1.2,0.4,1.9c0,0.3-0.1,0.5-0.3,0.7c-0.2,0.2-0.4,0.3-0.7,0.3h-7c0.1,0.3,0.2,0.6,0.4,0.9c0.2,0.3,0.4,0.5,0.7,0.7
			c0.3,0.2,0.5,0.3,0.9,0.4s0.6,0.2,1,0.2c0.4,0,0.7-0.1,1.1-0.2s0.6-0.3,0.9-0.5C179.5,372.6,179.7,372.5,180,372.5z M180.4,369.5
			c-0.1-0.3-0.2-0.6-0.4-0.9s-0.4-0.5-0.7-0.7s-0.5-0.3-0.9-0.4s-0.6-0.2-1-0.2s-0.7,0.1-1,0.2s-0.6,0.3-0.9,0.4s-0.5,0.4-0.7,0.7
			s-0.3,0.6-0.4,0.9H180.4z"/>
		<path class="st18" d="M185.5,366.4c0.8-0.6,1.7-0.9,2.8-0.9c0.6,0,1.2,0.1,1.8,0.4s1,0.6,1.5,1c0.4,0.4,0.8,0.9,1,1.5
			c0.2,0.6,0.4,1.2,0.4,1.8v4.3c0,0.3-0.1,0.5-0.3,0.7s-0.4,0.3-0.6,0.3c-0.3,0-0.5-0.1-0.7-0.3s-0.3-0.4-0.3-0.7V370
			c0-0.4-0.1-0.7-0.2-1.1s-0.3-0.6-0.6-0.9s-0.5-0.4-0.9-0.6s-0.7-0.2-1.1-0.2c-0.4,0-0.7,0.1-1.1,0.2s-0.6,0.3-0.9,0.6
			s-0.4,0.5-0.6,0.9s-0.2,0.7-0.2,1.1v4.3c0,0.3-0.1,0.5-0.3,0.7s-0.4,0.3-0.6,0.3c-0.3,0-0.5-0.1-0.7-0.3s-0.3-0.4-0.3-0.7v-8
			c0-0.3,0.1-0.5,0.3-0.7s0.4-0.3,0.7-0.3c0.3,0,0.5,0.1,0.6,0.3S185.5,366.1,185.5,366.4z"/>
		<path class="st18" d="M201.8,372.5c0.3,0,0.5,0.1,0.7,0.3c0.2,0.2,0.3,0.4,0.3,0.7c0,0.3-0.1,0.5-0.3,0.7c-0.9,0.8-2,1.2-3.2,1.2
			c-1.4,0-2.5-0.5-3.5-1.4s-1.4-2.1-1.4-3.5s0.5-2.5,1.4-3.5s2.1-1.4,3.5-1.4c1.2,0,2.3,0.4,3.2,1.2c0.2,0.2,0.3,0.4,0.3,0.7
			c0,0.3-0.1,0.5-0.3,0.7s-0.4,0.3-0.7,0.3c-0.2,0-0.4-0.1-0.6-0.2c-0.3-0.3-0.6-0.4-0.9-0.6s-0.7-0.2-1.1-0.2
			c-0.4,0-0.8,0.1-1.2,0.2c-0.4,0.2-0.7,0.4-1,0.7s-0.5,0.6-0.7,1s-0.2,0.8-0.2,1.2s0.1,0.8,0.2,1.2s0.4,0.7,0.7,1
			c0.3,0.3,0.6,0.5,1,0.7s0.8,0.2,1.2,0.2c0.4,0,0.7-0.1,1.1-0.2s0.6-0.3,0.9-0.6C201.3,372.6,201.5,372.5,201.8,372.5z"/>
		<path class="st18" d="M211.6,372.5c0.3,0,0.5,0.1,0.7,0.3c0.2,0.2,0.3,0.4,0.3,0.7c0,0.3-0.1,0.5-0.3,0.7c-0.9,0.8-2,1.2-3.2,1.2
			c-1.4,0-2.5-0.5-3.5-1.4s-1.4-2.1-1.4-3.5s0.5-2.5,1.4-3.5s2.1-1.4,3.5-1.4c1.3,0,2.5,0.5,3.5,1.4c0.5,0.5,0.8,1,1.1,1.6
			c0.2,0.6,0.4,1.2,0.4,1.9c0,0.3-0.1,0.5-0.3,0.7c-0.2,0.2-0.4,0.3-0.7,0.3h-7c0.1,0.3,0.2,0.6,0.4,0.9c0.2,0.3,0.4,0.5,0.7,0.7
			c0.3,0.2,0.5,0.3,0.9,0.4s0.6,0.2,1,0.2c0.4,0,0.7-0.1,1.1-0.2s0.6-0.3,0.9-0.5C211.2,372.6,211.4,372.5,211.6,372.5z M212,369.5
			c-0.1-0.3-0.2-0.6-0.4-0.9s-0.4-0.5-0.7-0.7s-0.5-0.3-0.9-0.4s-0.6-0.2-1-0.2s-0.7,0.1-1,0.2s-0.6,0.3-0.9,0.4s-0.5,0.4-0.7,0.7
			s-0.3,0.6-0.4,0.9H212z"/>
	</g>
</g>
<g>
	<g>
		<path class="st7" d="M340.9,414.3v-5.3h-10.2c-0.5,0-1-0.2-1.3-0.5s-0.5-0.8-0.5-1.3c0-0.4,0.1-0.8,0.4-1.1l12-17.3
			c0.2-0.2,0.4-0.4,0.6-0.6s0.6-0.2,0.9-0.2c0.2,0,0.5,0,0.7,0.1s0.4,0.2,0.6,0.4s0.3,0.4,0.4,0.6s0.1,0.5,0.1,0.7v15.5h2.2
			c0.5,0,1,0.2,1.3,0.5s0.5,0.8,0.5,1.3s-0.2,1-0.5,1.3s-0.8,0.5-1.3,0.5h-2.2v5.3c0,0.5-0.2,0.9-0.5,1.3s-0.8,0.5-1.3,0.5
			c-0.5,0-0.9-0.2-1.3-0.5S340.9,414.8,340.9,414.3z M340.9,405.4v-9.7l-6.7,9.7H340.9z"/>
		<path class="st7" d="M356,413.7c0,0.7-0.2,1.3-0.7,1.8s-1.1,0.7-1.8,0.7s-1.3-0.2-1.8-0.7s-0.7-1.1-0.7-1.8s0.2-1.3,0.7-1.8
			s1.1-0.7,1.8-0.7s1.3,0.2,1.8,0.7S356,413,356,413.7z"/>
	</g>
</g>
<ellipse class="st7" cx="186.2" cy="422.6" rx="71.3" ry="19.7"/>
<ellipse class="st19" cx="186.2" cy="418.1" rx="71.3" ry="19.7"/>
<ellipse class="st1" cx="156.3" cy="419.6" rx="3.5" ry="3.3"/>
<ellipse class="st1" cx="175.6" cy="420.3" rx="3.5" ry="3.3"/>
<ellipse class="st1" cx="172.1" cy="410.9" rx="3.5" ry="3.3"/>
<ellipse class="st1" cx="206.2" cy="414.2" rx="3.5" ry="3.3"/>
<ellipse class="st1" cx="188" cy="428.3" rx="3.5" ry="3.3"/>
<ellipse class="st1" cx="213.2" cy="423.6" rx="3.5" ry="3.3"/>
<ellipse class="st1" cx="191.5" cy="410.9" rx="3.5" ry="3.3"/>
<ellipse class="st20" cx="186.2" cy="416.3" rx="71.3" ry="19.7"/>
<polygon class="st21" points="184.5,437.8 134,402.9 144,401.2 196.3,437.6 "/>
<polygon class="st21" points="210.1,436.2 155,399.8 166,398 222.9,436 "/>
<polygon class="st17" points="410.3,330.9 396.3,338.2 388.5,352 381.2,338 367.4,330.1 381.4,322.8 389.3,309.1 396.6,323.1 "/>
<polygon class="st17" points="518.2,352.4 504.2,359.7 496.3,373.4 489,359.4 475.3,351.6 489.3,344.3 497.1,330.5 504.5,344.5 "/>
<polygon class="st17" points="413.1,459.7 399,467 391.2,480.7 383.9,466.7 370.1,458.9 384.1,451.6 392,437.8 399.3,451.8 "/>
</svg>
